# xmcd CD database file
#
# Track frame offsets:
#	150
#	12482
#	27070
#	42065
#	62070
#	74247
#	87430
#	101102
#	113645
#	125602
#	138717
#	154020
#	165517
#	178242
#
# Disc length: 2557 seconds
#
# Revision: 0
# Processed by: cddbd v1.4PL0 Copyright (c) Steve Scherf et al.
# Submitted via: CDex 1.50beta9
#
DISCID=c509fb0e
DTITLE=Country Buskers - Not From Nashville
DYEAR=1993
DGENRE=Country
TTITLE0=Even Cowgirls Get The Blues
TTITLE1=Okie From Muskogee
TTITLE2=18 Wheels and a Dozen Roses
TTITLE3=Me And Bobby McGee
TTITLE4=Come Early Morning
TTITLE5=Out Of Your Shoes
TTITLE6=Moonshine Bill
TTITLE7=Loving On The Side
TTITLE8=I'm Thinking About You
TTITLE9=Poor Rambling Boy
TTITLE10=Daddy's Hands
TTITLE11=Carry On
TTITLE12=Let Me Be There
TTITLE13=Good Hearted Woman
EXTD=YEAR: 1993
EXTT0=
EXTT1=
EXTT2=
EXTT3=
EXTT4=
EXTT5=
EXTT6=
EXTT7=
EXTT8=
EXTT9=
EXTT10=
EXTT11=
EXTT12=
EXTT13=
PLAYORDER=
